<?xml version="1.0" encoding="utf-8"?>
<!-- Generator: Adobe Illustrator 20.1.0, SVG Export Plug-In . SVG Version: 6.00 Build 0)  -->
<svg version="1.1" id="Layer_1" xmlns="http://www.w3.org/2000/svg" xmlns:xlink="http://www.w3.org/1999/xlink" x="0px" y="0px"
	 viewBox="0 0 142 287.6" style="enable-background:new 0 0 142 287.6;" xml:space="preserve">
<style type="text/css">
	.st0{fill:#FF9D27;}
	.st1{fill:#FDF516;}
	.st2{fill:#3BAACF;}
	.st3{fill:#428BC1;}
	.st4{fill:#C5D0D8;}
	.st5{fill:#DAE3EA;}
	.st6{fill:#C94747;}
	.st7{fill:#F15744;}
	.st8{fill:#3E4347;}
	.st9{fill:#62727A;}
	.st10{fill:#EDF4F9;}
	.st11{fill:#FFFFFF;}
</style>
<g>
	<path class="st0" d="M60.8,242.9c0-17.8-1.3-20.8,9.6-20.6c10.9,0.2,9.7,3.2,9.7,21c0,13.3-9.6,20.2-9.6,20.2
		S60.8,256.2,60.8,242.9z"/>
	<g>
		<path class="st0" d="M86.8,235.6c-5.9-12.9-5.9-15.3-13.8-13.2c-7.8,2.1-5.9,4-0.1,16.9c4.4,9.6,13.7,12.9,13.7,12.9
			S91.2,245.2,86.8,235.6z"/>
		<path class="st1" d="M73,231.8c-3.3-7.1-4.3-8.2,0-9.4c4.4-1.2,4.4,0.2,7.6,7.3c2.4,5.3-0.1,9.2-0.1,9.2S75.4,237.2,73,231.8z"/>
		<path class="st0" d="M67.8,222.4c-7.8-2.4-7.9,0-13.7,12.6c-4.3,9.4,0.2,16.6,0.2,16.6s9.3-2.9,13.6-12.4
			C73.7,226.6,75.6,224.8,67.8,222.4z"/>
		<path class="st1" d="M67.8,231.7c3.2-7,4.3-8-0.1-9.4c-4.4-1.3-4.4,0-7.6,7c-2.4,5.2,0.1,9.2,0.1,9.2S65.4,237,67.8,231.7z"/>
	</g>
	<path class="st1" d="M65.1,233.7c0-9.9-0.7-11.6,5.3-11.4c6.1,0.1,5.4,1.8,5.4,11.7c0,7.4-5.3,11.2-5.3,11.2S65.1,241.1,65.1,233.7
		z"/>
	<g>
		<g>
			<g>
				<path class="st2" d="M53.9,202.1c-37-10-50.2,22.1-50.2,22.1s-0.1-65.3,43.8-64.5L53.9,202.1z"/>
			</g>
			<g>
				<path class="st3" d="M47.4,174.1l0-14.4c-43.9-0.9-43.8,64.5-43.8,64.5S11.7,175.1,47.4,174.1z"/>
			</g>
		</g>
		<g>
			<g>
				<path class="st2" d="M87,202.7c37-8.5,50.3,24.1,50.3,24.1s-0.1-65.3-44-66.2L87,202.7z"/>
			</g>
			<g>
				<path class="st3" d="M93.3,175l0-14.4c43.9,0.9,44,66.2,44,66.2S129.1,177.5,93.3,175z"/>
			</g>
		</g>
	</g>
	<path class="st4" d="M105,120c0.1,51.7-14.8,94.1-34.6,93.6c-19.9-0.4-34.9-43.4-34.9-95.1c-0.1-60.2,34.6-92,34.6-92
		S104.9,59.8,105,120z"/>
	<path class="st5" d="M91.2,118.9c0.1,51.7-8.8,94.2-20.7,93.9c-11.9-0.2-21-43.1-21-94.8c-0.1-60.2,20.7-92.3,20.7-92.3
		S91.1,58.7,91.2,118.9z"/>
	<path class="st6" d="M87.7,210.8c0,2.2-1.6,4-3.8,3.9l-26.5-0.5c-2.2,0-4.2-1.9-4.2-4.1l0-8l34.6,0.7L87.7,210.8z"/>
	<path class="st7" d="M80.1,210.6c0,2.2-0.9,4-2.1,4L63,214.3c-1.3,0-2.4-1.8-2.4-4.1l0-8l19.4,0.4L80.1,210.6z"/>
	<path class="st8" d="M81.7,219.9c0,1.4-1.4,2.8-2.8,2.8l-17.3-0.3c-1.4,0-2.4-1.4-2.4-2.9l0-5.2l22.5,0.5L81.7,219.9z"/>
	<path class="st9" d="M78.3,219.9c0,1.4-1,2.8-2,2.8l-12-0.2c-1,0-1.7-1.4-1.7-2.9l0-5.2l15.7,0.3L78.3,219.9z"/>
	<g>
		<path class="st6" d="M70.1,26.6c0,0-12.5,11.4-22.5,33.5L92.7,61C82.6,38.5,70.1,26.6,70.1,26.6z"/>
	</g>
	<g>
		<path class="st7" d="M70.1,26.6c0,0-7.6,11.5-13.7,33.7l27.6,0.6C77.8,38.4,70.1,26.6,70.1,26.6z"/>
	</g>
	<g>
		<g>
			<g>
				
					<ellipse transform="matrix(0.7137 -0.7005 0.7005 0.7137 -55.5582 80.1188)" class="st10" cx="70.2" cy="108" rx="15.5" ry="15.9"/>
			</g>
		</g>
	</g>
	<g>
		
			<ellipse transform="matrix(0.7137 -0.7005 0.7005 0.7137 -55.5604 80.1178)" class="st2" cx="70.2" cy="108" rx="10.4" ry="10.6"/>
	</g>
	<g>
		
			<ellipse transform="matrix(0.7137 -0.7005 0.7005 0.7137 -86.669 92.8898)" class="st10" cx="70.3" cy="152.5" rx="15.5" ry="15.9"/>
	</g>
	<g>
		
			<ellipse transform="matrix(0.7137 -0.7005 0.7005 0.7137 -86.668 92.8876)" class="st2" cx="70.3" cy="152.5" rx="10.4" ry="10.6"/>
	</g>
	<g>
		<path class="st11" d="M51.8,65.4c0,1.4-1.2,2.6-2.6,2.6c-1.4,0-2.6-1.2-2.6-2.7c0-1.5,1.2-2.6,2.6-2.6
			C50.7,62.8,51.8,64,51.8,65.4z"/>
		
			<ellipse transform="matrix(0.7137 -0.7005 0.7005 0.7137 -28.8614 60.5877)" class="st11" cx="59.7" cy="65.6" rx="2.6" ry="2.6"/>
		
			<ellipse transform="matrix(0.7137 -0.7005 0.7005 0.7137 -26.0119 67.9847)" class="st11" cx="70.2" cy="65.8" rx="2.6" ry="2.6"/>
		<ellipse transform="matrix(0.7137 -0.7005 0.7005 0.7137 -23.1668 75.3798)" class="st11" cx="80.6" cy="66" rx="2.6" ry="2.6"/>
		
			<ellipse transform="matrix(0.7137 -0.7005 0.7005 0.7137 -20.3142 82.7754)" class="st11" cx="91.1" cy="66.2" rx="2.6" ry="2.6"/>
	</g>
</g>
</svg>
